<svg width="255" height="64" viewBox="0 0 255 64" fill="none" xmlns="http://www.w3.org/2000/svg">
<path d="M19.68 49.576C17.216 49.576 14.896 49.168 12.72 48.352C10.56 47.536 8.648 46.352 6.984 44.8C5.336 43.248 4.04 41.36 3.096 39.136C2.152 36.912 1.68 34.392 1.68 31.576C1.68 28.872 2.152 26.416 3.096 24.208C4.04 21.984 5.336 20.072 6.984 18.472C8.648 16.872 10.56 15.64 12.72 14.776C14.896 13.912 17.216 13.48 19.68 13.48C21.056 13.48 22.56 13.632 24.192 13.936C25.84 14.24 27.504 14.792 29.184 15.592L27.936 18.712C26.24 17.96 24.712 17.488 23.352 17.296C22.008 17.088 20.784 16.984 19.68 16.984C18.032 16.984 16.424 17.288 14.856 17.896C13.288 18.488 11.88 19.392 10.632 20.608C9.4 21.808 8.416 23.32 7.68 25.144C6.944 26.968 6.576 29.112 6.576 31.576C6.576 34.024 6.944 36.16 7.68 37.984C8.416 39.808 9.4 41.32 10.632 42.52C11.88 43.72 13.288 44.624 14.856 45.232C16.424 45.824 18.032 46.12 19.68 46.12C20.384 46.12 21.192 46.072 22.104 45.976C23.016 45.864 24 45.64 25.056 45.304V32.824H29.472V47.224C28.32 47.832 27.16 48.312 25.992 48.664C24.84 49 23.728 49.232 22.656 49.36C21.584 49.504 20.592 49.576 19.68 49.576ZM34.8255 23.512V14.104H39.0015V17.848C39.0015 18.488 38.9375 19.176 38.8095 19.912C38.6975 20.648 38.4895 21.328 38.1855 21.952C37.8815 22.56 37.4575 23.024 36.9135 23.344C36.3695 23.664 35.6735 23.72 34.8255 23.512ZM58.272 49V14.104H78.144V17.56H62.832V45.544H78.864V49H58.272ZM64.656 32.392C64.88 31.784 65.168 31.224 65.52 30.712C65.872 30.2 66.312 29.792 66.84 29.488C67.368 29.184 68.016 29.032 68.784 29.032H76.512V32.392H64.656ZM101.527 49V30.952C101.527 29.848 101.279 28.944 100.783 28.24C100.287 27.52 99.5431 27.16 98.5511 27.16C98.1671 27.16 97.8311 27.2 97.5431 27.28C97.2551 27.36 96.9031 27.448 96.4871 27.544C95.5591 27.752 94.6951 27.76 93.8951 27.568C93.0951 27.376 92.3591 26.936 91.6871 26.248C93.3991 25.24 94.8231 24.568 95.9591 24.232C97.1111 23.88 98.1191 23.704 98.9831 23.704C100.263 23.704 101.447 23.936 102.535 24.4C103.623 24.864 104.495 25.656 105.151 26.776C105.807 27.896 106.135 29.448 106.135 31.432V49H101.527ZM85.7831 49V30.232C85.7831 29.336 85.7271 28.384 85.6151 27.376C85.5191 26.368 85.3351 25.304 85.0631 24.184H88.5191C89.2871 25.048 89.7911 25.904 90.0311 26.752C90.2711 27.6 90.3911 28.504 90.3911 29.464V49H85.7831ZM123.881 49.48C121.737 49.48 119.785 48.984 118.025 47.992C116.281 47 114.889 45.544 113.849 43.624C112.825 41.704 112.313 39.352 112.313 36.568C112.313 33.8 112.841 31.464 113.897 29.56C114.969 27.64 116.385 26.184 118.145 25.192C119.905 24.2 121.817 23.704 123.881 23.704C124.745 23.704 125.697 23.784 126.737 23.944C127.777 24.088 128.777 24.344 129.737 24.712L128.633 27.832C127.721 27.592 126.881 27.424 126.113 27.328C125.345 27.216 124.601 27.16 123.881 27.16C122.665 27.16 121.537 27.496 120.497 28.168C119.473 28.84 118.641 29.872 118.001 31.264C117.377 32.656 117.065 34.424 117.065 36.568C117.065 38.728 117.377 40.504 118.001 41.896C118.625 43.288 119.449 44.328 120.473 45.016C121.513 45.688 122.649 46.024 123.881 46.024C124.585 46.024 125.361 45.92 126.209 45.712C127.073 45.488 128.057 45.128 129.161 44.632L130.361 47.8C129.065 48.44 127.849 48.88 126.713 49.12C125.577 49.36 124.633 49.48 123.881 49.48ZM144.269 49.48C142.125 49.48 140.173 48.984 138.413 47.992C136.669 47 135.277 45.544 134.237 43.624C133.213 41.704 132.701 39.352 132.701 36.568C132.701 34.376 133.029 32.472 133.685 30.856C134.357 29.24 135.245 27.904 136.349 26.848C137.469 25.792 138.717 25.008 140.093 24.496C141.469 23.968 142.861 23.704 144.269 23.704C146.717 23.704 148.805 24.28 150.533 25.432C152.261 26.568 153.573 28.112 154.469 30.064C155.381 32 155.837 34.168 155.837 36.568C155.837 38.648 155.525 40.496 154.901 42.112C154.293 43.712 153.453 45.064 152.381 46.168C151.309 47.256 150.077 48.08 148.685 48.64C147.293 49.2 145.821 49.48 144.269 49.48ZM144.269 46.024C145.821 46.024 147.101 45.592 148.109 44.728C149.117 43.864 149.861 42.72 150.341 41.296C150.837 39.856 151.085 38.28 151.085 36.568C151.085 34.424 150.765 32.656 150.125 31.264C149.501 29.872 148.669 28.84 147.629 28.168C146.605 27.496 145.485 27.16 144.269 27.16C143.053 27.16 141.925 27.496 140.885 28.168C139.861 28.84 139.029 29.872 138.389 31.264C137.765 32.656 137.453 34.424 137.453 36.568C137.453 39.352 138.045 41.624 139.229 43.384C140.413 45.144 142.093 46.024 144.269 46.024ZM170.977 49.48C168.737 49.48 166.825 48.912 165.241 47.776C163.673 46.624 162.473 45.064 161.641 43.096C160.825 41.128 160.417 38.92 160.417 36.472C160.417 34.552 160.721 32.824 161.329 31.288C161.953 29.736 162.793 28.408 163.849 27.304C164.905 26.2 166.097 25.36 167.425 24.784C168.753 24.192 170.129 23.896 171.553 23.896C172.273 23.896 173.033 23.952 173.833 24.064C174.649 24.176 175.489 24.392 176.353 24.712C175.921 25.496 175.345 26.136 174.625 26.632C173.905 27.128 172.977 27.368 171.841 27.352C170.737 27.32 169.673 27.616 168.649 28.24C167.641 28.848 166.809 29.832 166.153 31.192C165.497 32.536 165.169 34.296 165.169 36.472C165.169 38.328 165.417 39.976 165.913 41.416C166.425 42.856 167.161 43.984 168.121 44.8C169.097 45.616 170.289 46.024 171.697 46.024C172.801 46.024 173.881 45.744 174.937 45.184C175.993 44.608 177.009 43.72 177.985 42.52V12.616H182.449V40.792C182.449 42.712 182.521 44.352 182.665 45.712C182.809 47.056 182.977 48.152 183.169 49H179.953C179.569 48.664 179.249 48.312 178.993 47.944C178.753 47.56 178.513 47.048 178.273 46.408L178.177 45.64L177.793 46.456C176.817 47.576 175.681 48.36 174.385 48.808C173.105 49.256 171.969 49.48 170.977 49.48ZM190.496 49V24.184H195.104V49H190.496ZM192.8 19.864C191.984 19.864 191.296 19.592 190.736 19.048C190.192 18.488 189.92 17.8 189.92 16.984C189.92 16.136 190.192 15.44 190.736 14.896C191.296 14.336 191.984 14.056 192.8 14.056C193.648 14.056 194.336 14.336 194.864 14.896C195.408 15.44 195.68 16.136 195.68 16.984C195.68 17.8 195.408 18.488 194.864 19.048C194.336 19.592 193.648 19.864 192.8 19.864ZM218.762 49V30.952C218.762 29.848 218.514 28.944 218.018 28.24C217.522 27.52 216.778 27.16 215.786 27.16C215.402 27.16 215.066 27.2 214.778 27.28C214.49 27.36 214.138 27.448 213.722 27.544C212.794 27.752 211.93 27.76 211.13 27.568C210.33 27.376 209.594 26.936 208.922 26.248C210.634 25.24 212.058 24.568 213.194 24.232C214.346 23.88 215.354 23.704 216.218 23.704C217.498 23.704 218.682 23.936 219.77 24.4C220.858 24.864 221.73 25.656 222.386 26.776C223.042 27.896 223.37 29.448 223.37 31.432V49H218.762ZM203.018 49V30.232C203.018 29.336 202.962 28.384 202.85 27.376C202.754 26.368 202.57 25.304 202.298 24.184H205.754C206.522 25.048 207.026 25.904 207.266 26.752C207.506 27.6 207.626 28.504 207.626 29.464V49H203.018ZM239.963 61C238.715 61 237.347 60.864 235.859 60.592C234.387 60.336 232.859 59.8 231.275 58.984L232.523 55.72C233.899 56.392 235.163 56.864 236.315 57.136C237.483 57.408 238.571 57.544 239.579 57.544C240.923 57.544 242.155 57.256 243.275 56.68C244.395 56.104 245.291 55.224 245.963 54.04C246.635 52.856 246.971 51.352 246.971 49.528V27.688C246.235 27.496 245.539 27.36 244.883 27.28C244.243 27.2 243.563 27.16 242.843 27.16C240.443 27.16 238.507 27.984 237.035 29.632C235.563 31.28 234.827 33.64 234.827 36.712C234.827 38.52 235.067 40.136 235.547 41.56C236.043 42.968 236.779 44.056 237.755 44.824C238.747 45.592 239.979 45.896 241.451 45.736C242.155 45.656 242.835 45.752 243.491 46.024C244.147 46.296 244.763 46.792 245.339 47.512C244.555 48.04 243.739 48.448 242.891 48.736C242.043 49.024 241.259 49.208 240.539 49.288C239.115 49.4 237.771 49.184 236.507 48.64C235.259 48.08 234.155 47.24 233.195 46.12C232.235 45 231.483 43.64 230.939 42.04C230.395 40.44 230.123 38.664 230.123 36.712C230.123 34.104 230.667 31.824 231.755 29.872C232.843 27.92 234.339 26.408 236.243 25.336C238.163 24.248 240.363 23.704 242.843 23.704C243.739 23.704 244.627 23.76 245.507 23.872C246.387 23.968 247.299 24.128 248.243 24.352C249.203 24.576 250.235 24.872 251.339 25.24V49C251.339 51.384 250.875 53.472 249.947 55.264C249.035 57.072 247.723 58.48 246.011 59.488C244.315 60.496 242.299 61 239.963 61Z" fill="#000230"/>
</svg>
